<svg width="88" height="100" fill="none" xmlns="http://www.w3.org/2000/svg"><path d="M83.383 22.367c-2.168-2.957-5.195-6.418-8.511-9.738-3.32-3.32-6.782-6.344-9.739-8.512C60.094.422 57.653 0 56.251 0H7.813C3.508 0 0 3.508 0 7.813v84.374C0 96.493 3.508 100 7.813 100h71.874c4.305 0 7.813-3.508 7.813-7.813V31.25c0-1.398-.425-3.843-4.117-8.882Zm-12.938-5.312c3 3 5.352 5.699 7.086 7.945H62.492V9.969c2.242 1.738 4.95 4.086 7.946 7.086h.007ZM81.25 92.188c0 .851-.71 1.562-1.562 1.562H7.813c-.844 0-1.563-.71-1.563-1.562V7.813c0-.844.72-1.563 1.563-1.563H56.25v21.875a3.124 3.124 0 0 0 3.125 3.125H81.25v60.938Z" fill="#fff"/><path d="M65.625 81.25h-43.75a3.124 3.124 0 1 1 0-6.25h43.75a3.124 3.124 0 1 1 0 6.25ZM65.625 68.75h-43.75a3.124 3.124 0 1 1 0-6.25h43.75a3.124 3.124 0 1 1 0 6.25ZM65.625 56.25h-43.75a3.124 3.124 0 1 1 0-6.25h43.75a3.124 3.124 0 1 1 0 6.25Z" fill="#fff"/></svg>