<svg width="123" height="96" viewBox="0 0 123 96" fill="none" xmlns="http://www.w3.org/2000/svg">
<path fill-rule="evenodd" clip-rule="evenodd" d="M61.41 11.56L0.22998 53.72L61.41 95.88L122.59 53.72L61.41 11.56Z" fill="#CBCBCB"/>
<path fill-rule="evenodd" clip-rule="evenodd" d="M6.55981 53.72L61.4098 15.92L116.27 53.72L61.4098 91.52L6.55981 53.72Z" fill="white"/>
<path fill-rule="evenodd" clip-rule="evenodd" d="M0.469971 42.16L61.41 0.160004L122.36 42.16L61.41 84.16L0.469971 42.16Z" fill="#CBCBCB"/>
<path fill-rule="evenodd" clip-rule="evenodd" d="M6.55981 42.16L61.4098 4.36L116.27 42.16L61.4098 79.96L6.55981 42.16Z" fill="white"/>
<path fill-rule="evenodd" clip-rule="evenodd" d="M73.7099 27.88V30C76.6499 31.5 78.4399 33.44 78.3899 35.26L79.0799 35.59L81.1699 32.04C79.0034 30.1418 76.4617 28.721 73.7099 27.87V27.88ZM61.5199 26C58.7849 25.9986 56.0583 26.3004 53.3899 26.9V28.71C56.0073 27.8162 58.7541 27.3601 61.5199 27.36C64.264 27.3553 66.9959 27.7254 69.6399 28.46V26.77C66.9676 26.2272 64.2467 25.9592 61.5199 25.97V26ZM80.6899 45.9C78.6442 47.6552 76.2624 48.9753 73.6899 49.78C72.3634 50.2472 71.007 50.6247 69.6299 50.91C66.9577 51.454 64.2368 51.7221 61.5099 51.71C58.8198 51.7168 56.1371 51.4284 53.5099 50.85H53.3399C51.9589 50.5503 50.6019 50.1492 49.2799 49.65C43.2799 47.41 39.1199 43.55 39.1199 38.89C39.1199 34.23 43.2999 30.37 49.2799 28.13V30.64C46.0299 32.64 43.8599 35.53 43.8599 38.89C43.8599 42.25 46.0299 45.11 49.2799 47.13C50.5882 47.8808 51.9643 48.5069 53.3899 49C56.0073 49.8938 58.7541 50.3499 61.5199 50.35C64.2666 50.3486 66.9985 49.9477 69.6299 49.16C71.0461 48.7792 72.4123 48.232 73.6999 47.53L73.9399 47.4C76.6099 45.95 78.3199 44.16 78.4299 42.49L79.1999 42.28L80.6899 45.9Z" fill="#CBCBCB"/>
<path fill-rule="evenodd" clip-rule="evenodd" d="M77.7698 55.09V55.77C77.7698 56.44 76.4198 59.44 70.9898 60.03L56.0998 61.86L53.3898 63.86H52.7198L55.4198 58.45H56.7798L70.3298 57.79C75.8398 57.45 76.9998 55.79 76.9998 55.79H45.2698V55.11L49.1698 54.25C49.2557 53.6366 49.3091 53.0191 49.3298 52.4V49.61C50.6518 50.1092 52.0088 50.5103 53.3898 50.81V52.38C53.3306 53.0584 53.4228 53.7415 53.6598 54.38H69.3298C69.5911 53.7476 69.6974 53.0619 69.6398 52.38V50.91C71.0203 50.6252 72.38 50.2477 73.7098 49.78V52.38C73.7098 53.06 73.8598 54.23 73.8598 54.23L77.7698 55.09ZM46.6298 23.26V23.94L49.2298 24.63C49.2298 24.63 49.3398 25.96 49.3398 26.63V47.08C50.6271 47.8446 51.983 48.4874 53.3898 49V26.63C53.3898 25.96 53.4798 24.63 53.4798 24.63L56.0998 23.94V23.26H46.6298ZM76.4198 23.26V23.94L73.8298 24.83C73.8298 24.83 73.7198 25.96 73.7198 26.64V47.53C72.4259 48.2335 71.0529 48.7807 69.6298 49.16V26.63C69.6298 25.96 69.5398 24.63 69.5398 24.63L66.9198 23.94V23.26H76.4198Z" fill="#CBCBCB"/>
</svg>
