<svg width="124" height="96" fill="none" xmlns="http://www.w3.org/2000/svg"><path fill-rule="evenodd" clip-rule="evenodd" d="M61.78 11.56.6 53.72l61.18 42.16 61.18-42.16-61.18-42.16Z" fill="#EFD06A"/><path fill-rule="evenodd" clip-rule="evenodd" d="m6.93 53.72 54.85-37.8 54.86 37.8-54.86 37.8-54.85-37.8Z" fill="#4c4c4c"/><path fill-rule="evenodd" clip-rule="evenodd" d="m.84 42.16 60.94-42 60.95 42-60.95 42-60.94-42Z" fill="#EFD06A"/><path fill-rule="evenodd" clip-rule="evenodd" d="m6.93 42.16 54.85-37.8 54.86 37.8-54.86 37.8-54.85-37.8Z" fill="#8D150E"/><path fill-rule="evenodd" clip-rule="evenodd" d="M74.08 27.88V30c2.94 1.5 4.73 3.44 4.68 5.26l.69.33 2.09-3.55a20.519 20.519 0 0 0-7.46-4.17v.01ZM61.89 26c-2.735-.001-5.462.3-8.13.9v1.81a25.16 25.16 0 0 1 8.13-1.35 30.14 30.14 0 0 1 8.12 1.1v-1.69a39.996 39.996 0 0 0-8.12-.8V26Zm19.17 19.9a19.85 19.85 0 0 1-7 3.88A31.391 31.391 0 0 1 70 50.91a39.818 39.818 0 0 1-8.12.8 36.775 36.775 0 0 1-8-.86h-.17c-1.381-.3-2.738-.7-4.06-1.2-6-2.24-10.16-6.1-10.16-10.76s4.18-8.52 10.16-10.76v2.51c-3.25 2-5.42 4.89-5.42 8.25 0 3.36 2.17 6.22 5.42 8.24A24.056 24.056 0 0 0 53.76 49a25.16 25.16 0 0 0 8.13 1.35A28.33 28.33 0 0 0 70 49.16a18.584 18.584 0 0 0 4.07-1.63l.24-.13c2.67-1.45 4.38-3.24 4.49-4.91l.77-.21 1.49 3.62Z" fill="#EFD06A"/><path fill-rule="evenodd" clip-rule="evenodd" d="M78.14 55.09v.68c0 .67-1.35 3.67-6.78 4.26l-14.89 1.83-2.71 2h-.67l2.7-5.41h1.36l13.55-.66c5.51-.34 6.67-2 6.67-2H45.64v-.68l3.9-.86c.086-.613.14-1.23.16-1.85v-2.79c1.322.5 2.679.9 4.06 1.2v1.57a4.6 4.6 0 0 0 .27 2H69.7a4.29 4.29 0 0 0 .31-2v-1.47a31.37 31.37 0 0 0 4.07-1.13v2.6c0 .68.15 1.85.15 1.85l3.91.86ZM47 23.26v.68l2.6.69s.11 1.33.11 2v20.45A24.062 24.062 0 0 0 53.76 49V26.63c0-.67.09-2 .09-2l2.62-.69v-.68H47Zm29.79 0v.68l-2.59.89s-.11 1.13-.11 1.81v20.89A18.58 18.58 0 0 1 70 49.16V26.63c0-.67-.09-2-.09-2l-2.62-.69v-.68h9.5Z" fill="#EFD06A"/></svg>