<svg width="49" height="49" fill="none" xmlns="http://www.w3.org/2000/svg"><path d="M24.501 24.691c4.45 0 8.056-3.512 8.056-7.846C32.557 12.512 28.95 9 24.5 9c-4.45 0-8.058 3.512-8.058 7.845 0 4.334 3.608 7.846 8.058 7.846Zm0-11.705c2.189 0 3.963 1.727 3.963 3.86 0 2.131-1.774 3.86-3.963 3.86-2.19 0-3.964-1.729-3.964-3.86 0-2.133 1.774-3.86 3.964-3.86Zm9.286 12.663c-.454-.89-1.714-1.63-3.389-.346-2.264 1.736-5.897 1.736-5.897 1.736s-3.635 0-5.899-1.736c-1.674-1.284-2.933-.544-3.388.346-.794 1.55.102 2.3 2.124 3.565 1.727 1.08 4.1 1.483 5.632 1.634l-1.279 1.245-4.747 4.624a1.764 1.764 0 0 0 0 2.544l.217.212c.722.703 1.891.703 2.613 0l4.747-4.623c1.803 1.754 3.541 3.448 4.748 4.623.722.703 1.891.703 2.613 0l.217-.212a1.765 1.765 0 0 0 0-2.545l-4.747-4.623-1.282-1.25c1.533-.154 3.88-.558 5.593-1.63 2.022-1.263 2.917-2.014 2.124-3.564Z" fill="#fff"/></svg>